<?xml version="1.0" standalone="no"?>
<!DOCTYPE svg PUBLIC "-//W3C//DTD SVG 20010904//EN"
 "http://www.w3.org/TR/2001/REC-SVG-20010904/DTD/svg10.dtd">
<svg version="1.0" xmlns="http://www.w3.org/2000/svg"
 width="736.000000pt" height="736.000000pt" viewBox="0 0 736.000000 736.000000"
 preserveAspectRatio="xMidYMid meet">

<g transform="translate(0.000000,736.000000) scale(0.100000,-0.100000)"
fill="#000000" stroke="none">
<path d="M0 3680 l0 -3680 3680 0 3680 0 0 3680 0 3680 -3680 0 -3680 0 0
-3680z m4955 1993 c-3 -65 -9 -137 -14 -160 -4 -24 -5 -43 0 -43 7 0 -1 -33
-18 -80 -4 -8 -6 -18 -5 -22 1 -4 -7 -10 -18 -13 -11 -4 -20 -11 -20 -16 0
-35 -261 -424 -285 -424 -5 0 -16 -4 -23 -9 -11 -7 -12 -4 -3 13 27 50 -7 10
-127 -151 -208 -279 -319 -453 -424 -661 -68 -138 -140 -299 -134 -304 2 -2
16 25 32 61 15 36 31 63 35 61 11 -7 3 -70 -9 -68 -6 2 -9 -3 -6 -11 3 -8 -13
-71 -35 -141 -105 -327 -128 -665 -65 -957 8 -40 17 -89 20 -110 4 -33 3 -36
-16 -31 -13 3 -19 11 -16 19 3 8 1 14 -4 14 -4 0 -11 14 -15 31 -4 17 -9 28
-12 25 -8 -8 27 -107 59 -166 17 -30 48 -75 68 -100 46 -55 126 -114 135 -100
3 5 4 14 0 19 -13 21 14 18 75 -9 36 -16 82 -32 103 -35 42 -8 46 -28 6 -33
-13 -2 -28 -8 -34 -13 -7 -7 -4 -8 8 -4 28 11 19 -2 -17 -25 -19 -11 -55 -41
-80 -66 -25 -25 -46 -43 -46 -40 0 3 -21 -17 -47 -45 -35 -37 -49 -46 -56 -37
-6 10 -7 9 -4 -4 6 -17 -25 -53 -36 -41 -4 3 -7 0 -7 -8 0 -16 -60 -74 -72
-71 -5 1 -8 -5 -8 -14 0 -8 -4 -12 -10 -9 -5 3 -7 0 -4 -8 7 -18 -24 -31 -41
-17 -15 13 -42 -19 -135 -160 -34 -52 -64 -97 -66 -99 -2 -2 -56 47 -120 110
-167 165 -290 335 -358 496 -32 77 -76 227 -76 260 0 20 -4 24 -20 20 -29 -7
-33 21 -28 166 6 144 34 285 89 443 58 169 85 225 104 218 8 -4 14 -14 11 -23
-2 -9 -7 -29 -10 -46 -5 -29 -5 -29 11 5 197 418 281 546 601 910 175 199 243
270 252 265 4 -2 20 10 36 28 l29 32 -31 -28 c-27 -24 -32 -26 -38 -12 -4 11
0 18 12 22 10 2 24 18 31 34 9 20 18 28 28 25 8 -3 12 -2 8 3 -3 5 8 19 24 31
21 14 28 26 24 38 -3 9 -2 13 2 9 5 -4 64 47 131 114 67 67 126 122 130 123 5
0 8 5 6 9 -1 5 2 6 7 3 5 -4 40 30 77 73 38 44 70 78 73 76 5 -6 -72 -94 -334
-380 -314 -342 -360 -396 -349 -403 11 -9 15 -44 3 -37 -4 3 -7 -3 -6 -12 0
-10 -8 -31 -19 -48 -16 -25 -19 -47 -19 -157 0 -70 1 -128 2 -128 1 0 39 73
83 163 133 272 247 452 490 777 182 244 256 350 305 438 47 87 53 101 33 85
-7 -6 -25 -13 -41 -17 -34 -8 -209 -164 -200 -178 3 -7 1 -8 -5 -4 -6 3 -14 0
-19 -8 -13 -23 -233 -148 -233 -132 0 2 30 23 68 47 123 80 473 451 448 476
-3 3 -50 -8 -103 -26 -159 -52 -293 -72 -513 -77 -107 -3 -196 -7 -199 -10 -2
-2 6 -4 18 -4 15 0 20 -4 15 -12 -6 -10 -4 -10 7 0 8 8 46 12 108 12 52 0 92
-2 90 -4 -2 -2 -42 -7 -89 -11 -46 -3 -87 -8 -90 -10 -3 -2 -33 -7 -65 -10
-33 -4 -69 -9 -80 -11 -10 -2 -37 -6 -60 -9 -64 -9 -189 -37 -200 -45 -5 -4
-22 -10 -37 -14 -16 -3 -28 -11 -28 -16 0 -5 -7 -7 -15 -4 -8 4 -17 -1 -21
-10 -3 -9 -10 -13 -15 -10 -8 5 -17 -1 -52 -32 -24 -21 -102 -68 -109 -66 -5
1 -8 -6 -9 -16 0 -10 -3 -12 -6 -5 -3 10 -8 10 -19 -1 -8 -8 -14 -19 -14 -25
0 -12 -16 -15 -23 -3 -2 4 -2 1 -1 -5 2 -7 -1 -13 -6 -13 -6 0 -10 -6 -10 -13
0 -7 -12 -18 -27 -23 l-28 -10 53 -28 c68 -35 217 -83 282 -92 31 -4 50 -12
50 -19 0 -18 129 -29 255 -22 208 12 392 72 599 195 147 88 179 105 171 91
-33 -52 -434 -483 -443 -474 -3 3 26 38 64 78 38 40 112 120 164 176 86 95 90
101 45 69 -60 -43 -160 -97 -129 -70 12 10 26 28 33 40 l12 23 -38 -17 c-246
-108 -342 -128 -568 -121 -169 5 -238 17 -590 103 -138 33 -158 36 -255 31
-59 -3 -125 -12 -150 -22 -65 -24 -152 -78 -138 -86 15 -10 39 1 31 14 -3 6
-1 7 6 3 6 -4 19 -2 28 5 8 7 27 14 42 16 24 2 23 1 -9 -15 -58 -28 -110 -63
-110 -73 0 -6 12 -2 28 9 34 24 92 54 92 48 0 -3 -13 -12 -28 -20 -16 -8 -47
-30 -70 -50 -34 -28 -39 -35 -25 -39 16 -4 15 -6 -4 -12 -13 -4 -19 -12 -16
-21 3 -8 0 -14 -7 -14 -6 0 -8 -4 -5 -10 3 -5 -1 -20 -9 -32 -14 -21 -24 -63
-57 -235 -6 -29 -15 -53 -20 -53 -8 0 -16 208 -10 288 1 19 -3 32 -10 32 -8 0
-8 4 1 15 10 12 10 19 2 27 -15 15 -15 31 0 22 8 -5 9 2 5 25 -4 18 -3 30 2
27 13 -9 28 95 47 324 11 142 11 141 72 205 51 53 194 171 336 278 27 20 58
37 70 37 23 -1 79 -29 58 -30 -7 0 -11 -4 -8 -9 3 -5 -6 -12 -19 -15 -15 -4
-23 -11 -19 -17 4 -8 1 -8 -13 -1 -16 9 -29 3 -76 -34 -31 -24 -57 -47 -57
-50 0 -3 26 15 58 40 32 26 59 41 61 34 2 -6 -3 -16 -11 -22 -9 -7 -33 -26
-54 -43 -271 -223 -340 -282 -355 -303 -14 -19 -21 -60 -29 -165 -6 -77 -12
-157 -14 -177 -5 -44 9 -51 19 -11 3 15 15 45 26 67 10 22 19 46 19 53 0 7 5
13 11 13 5 0 7 4 4 10 -3 5 3 20 14 32 12 12 21 30 21 39 0 26 33 78 53 85 13
4 17 12 14 25 -3 10 -2 17 3 14 4 -3 22 9 40 25 18 17 40 30 49 30 14 0 14 2
1 10 -12 8 -12 10 -1 10 8 0 26 13 42 29 15 16 30 27 33 24 3 -3 25 7 48 22
24 16 52 28 62 27 10 0 37 8 59 19 45 21 61 24 52 9 -3 -5 7 -3 22 4 47 23 94
36 86 23 -4 -7 0 -8 13 -2 16 6 116 25 149 28 6 0 23 -3 38 -7 17 -4 27 -2 27
4 0 6 5 8 12 4 7 -4 51 -13 98 -20 47 -7 126 -20 175 -28 50 -9 101 -15 115
-15 14 1 -49 14 -140 30 -211 37 -622 140 -644 160 -16 14 27 11 74 -6 116
-41 381 -103 605 -141 186 -32 494 -44 650 -24 116 14 246 43 322 72 53 19 64
31 41 42 -7 3 0 4 16 2 34 -4 56 2 56 16 0 5 -5 6 -11 2 -8 -4 -8 0 0 15 14
25 33 28 24 4 -6 -16 -4 -16 15 1 12 11 21 29 20 42 l-2 24 -26 -23 c-14 -13
-43 -31 -64 -41 -35 -15 -38 -15 -26 -1 7 9 27 23 44 32 17 8 51 34 76 57 24
22 37 32 27 20 -20 -24 -23 -47 -4 -42 6 3 18 24 26 49 22 68 33 99 37 99 2 0
2 -53 -1 -117z m-225 -121 c0 -4 -9 -8 -20 -9 -11 -1 -18 2 -15 8 7 11 35 12
35 1z m-75 -361 c-6 -11 -105 -73 -105 -66 0 4 101 75 108 75 2 0 1 -4 -3 -9z
m-1717 -256 c-7 -6 -132 -16 -126 -10 8 9 110 23 121 17 5 -2 7 -5 5 -7z m69
-1 c-3 -3 -12 -4 -19 -1 -8 3 -5 6 6 6 11 1 17 -2 13 -5z m630 -60 c-3 -3 -12
-4 -19 -1 -8 3 -5 6 6 6 11 1 17 -2 13 -5z m343 -904 c-7 -4 -9 -18 -4 -36 6
-27 5 -28 -10 -13 -14 13 -15 20 -5 42 7 15 16 24 22 20 5 -3 4 -8 -3 -13z
m-190 -2126 c0 -8 -4 -13 -9 -9 -6 3 -14 -2 -19 -11 -6 -11 -11 -13 -16 -5 -4
6 -3 11 2 11 5 0 12 9 15 21 6 23 27 17 27 -7z"/>
<path d="M2859 5503 c-2 -4 -46 -42 -96 -82 -51 -41 -93 -76 -93 -78 0 -12 27
4 82 49 94 79 123 106 116 113 -3 4 -8 3 -9 -2z"/>
<path d="M4787 5403 c-4 -3 -7 -11 -7 -17 0 -6 5 -5 12 2 6 6 9 14 7 17 -3 3
-9 2 -12 -2z"/>
<path d="M3881 5395 c9 -9 80 -12 85 -4 3 5 -16 9 -42 9 -26 0 -45 -2 -43 -5z"/>
<path d="M4749 5341 l-24 -20 23 6 c23 5 38 20 29 29 -2 2 -15 -4 -28 -15z"/>
<path d="M4493 5051 c-18 -10 -30 -21 -27 -24 4 -3 -2 -5 -12 -5 -11 1 -31 -6
-46 -16 -28 -18 -39 -34 -15 -20 6 4 2 -3 -10 -15 -25 -24 -30 -37 -10 -25 57
36 171 125 157 123 -3 0 -20 -8 -37 -18z m-58 -51 c-3 -5 -12 -10 -18 -10 -7
0 -6 4 3 10 19 12 23 12 15 0z"/>
<path d="M2913 5003 c9 -2 25 -2 35 0 9 3 1 5 -18 5 -19 0 -27 -2 -17 -5z"/>
<path d="M2843 4993 c9 -2 23 -2 30 0 6 3 -1 5 -18 5 -16 0 -22 -2 -12 -5z"/>
<path d="M3008 4993 c12 -2 32 -2 45 0 12 2 2 4 -23 4 -25 0 -35 -2 -22 -4z"/>
<path d="M2798 4983 c7 -3 16 -2 19 1 4 3 -2 6 -13 5 -11 0 -14 -3 -6 -6z"/>
<path d="M3081 4986 c6 -7 166 -46 181 -45 7 0 -27 12 -77 25 -90 23 -112 28
-104 20z"/>
<path d="M2694 4949 c-32 -16 -75 -44 -94 -60 -27 -24 -21 -21 27 10 34 22 83
50 110 60 26 11 41 20 32 20 -9 1 -43 -13 -75 -30z"/>
<path d="M3288 4933 c7 -3 16 -2 19 1 4 3 -2 6 -13 5 -11 0 -14 -3 -6 -6z"/>
<path d="M3335 4920 c27 -12 43 -12 25 0 -8 5 -22 9 -30 9 -10 0 -8 -3 5 -9z"/>
<path d="M3558 4873 c6 -2 18 -2 25 0 6 3 1 5 -13 5 -14 0 -19 -2 -12 -5z"/>
<path d="M4337 4758 c-96 -106 -100 -110 -53 -68 41 38 141 150 133 150 -3 0
-39 -37 -80 -82z"/>
<path d="M3983 4368 c-149 -155 -410 -467 -515 -618 -152 -219 -290 -521 -341
-747 -7 -33 2 -28 14 7 6 17 15 30 20 30 5 0 9 7 9 15 0 8 5 15 11 15 15 0
109 97 101 104 -3 3 2 6 10 6 12 0 15 6 11 23 -5 22 -5 22 11 2 10 -11 15 -15
12 -8 -4 6 1 19 11 28 14 14 14 18 2 26 -13 8 -6 13 14 10 4 0 7 6 7 14 0 9 6
18 14 21 8 3 19 19 25 35 7 21 7 28 0 23 -7 -4 -7 1 1 15 13 25 42 171 43 219
0 17 4 32 9 32 4 0 8 9 8 19 0 42 75 174 174 306 52 69 87 110 299 352 59 68
107 123 105 123 -2 0 -27 -24 -55 -52z"/>
<path d="M3160 3299 c0 -5 5 -7 10 -4 6 3 10 8 10 11 0 2 -4 4 -10 4 -5 0 -10
-5 -10 -11z"/>
<path d="M3688 3090 c-3 -16 0 -34 5 -39 7 -7 2 -14 -14 -20 -13 -5 -18 -10
-10 -10 16 -1 5 -16 -11 -16 -6 0 -13 -7 -15 -15 -4 -13 -3 -13 6 0 9 12 11
11 11 -9 0 -17 -4 -22 -16 -17 -9 4 -13 2 -8 -5 4 -6 0 -16 -7 -21 -11 -7 -9
-8 5 -4 13 5 17 2 12 -9 -3 -8 -9 -22 -13 -32 -5 -12 -3 -14 8 -9 8 4 6 1 -4
-7 -11 -10 -19 -32 -22 -62 -2 -26 -9 -53 -16 -59 -8 -8 -10 -5 -4 14 5 19 4
21 -4 10 -6 -8 -11 -31 -11 -51 0 -20 -3 -39 -7 -43 -5 -4 -8 -11 -9 -14 -5
-43 -20 -91 -33 -106 -13 -16 -13 -18 -1 -12 8 4 4 -2 -10 -13 -14 -11 -20
-21 -14 -21 17 0 14 -50 -3 -50 -8 0 -11 -5 -7 -11 3 -6 1 -14 -5 -18 -6 -4
-12 -20 -14 -37 -2 -16 -9 -40 -16 -52 -7 -13 -9 -31 -6 -42 3 -10 1 -21 -5
-25 -8 -5 -7 -12 2 -23 10 -12 10 -14 1 -8 -7 4 -14 4 -14 -1 -4 -21 -9 -51
-15 -78 -3 -16 -7 -43 -8 -60 -1 -16 -4 -34 -7 -40 -3 -5 -6 -38 -8 -71 -2
-66 16 -125 47 -153 25 -22 91 -133 112 -188 l17 -44 25 38 c13 21 31 53 39
71 7 17 17 32 21 32 4 0 4 7 1 17 -5 12 -3 14 7 8 10 -6 12 -4 7 9 -4 11 6 35
29 67 20 28 31 48 25 45 -15 -10 -14 -5 8 45 11 24 17 47 14 53 -3 5 -1 6 5 2
7 -4 12 -1 12 9 0 9 5 13 10 10 6 -3 10 1 10 9 0 8 10 26 23 40 12 14 32 36
45 50 12 14 29 26 37 26 7 0 23 12 34 26 12 15 21 23 21 19 0 -4 11 0 25 9 14
9 30 14 34 11 5 -3 17 2 25 11 9 8 16 13 16 9 0 -3 13 2 30 11 l29 18 -59 38
c-75 49 -178 160 -218 235 -46 86 -81 222 -92 348 -4 60 -8 112 -8 115 3 38
-4 80 -12 75 -5 -3 -10 -2 -10 4 0 5 5 11 10 13 6 2 2 8 -9 15 -17 11 -19 9
-23 -17z"/>
<path d="M3771 2774 c0 -11 3 -14 6 -6 3 7 2 16 -1 19 -3 4 -6 -2 -5 -13z"/>
<path d="M3080 2362 c0 -31 49 -161 92 -243 61 -118 152 -241 248 -334 l72
-70 -51 70 c-27 39 -67 99 -88 135 -20 36 -41 67 -45 68 -4 2 -8 9 -8 17 0 12
-48 105 -60 115 -3 3 -26 44 -50 92 -24 48 -47 85 -52 82 -4 -3 -8 1 -8 9 0 8
-7 17 -15 21 -8 3 -15 12 -15 20 0 8 -4 18 -10 21 -5 3 -10 2 -10 -3z"/>
<path d="M4123 2250 c-18 -11 -61 -47 -95 -81 l-63 -62 60 53 c33 30 80 66
104 82 50 31 44 39 -6 8z"/>
<path d="M4168 2243 c7 -3 16 -2 19 1 4 3 -2 6 -13 5 -11 0 -14 -3 -6 -6z"/>
<path d="M4120 2189 c0 -5 5 -7 10 -4 6 3 10 8 10 11 0 2 -4 4 -10 4 -5 0 -10
-5 -10 -11z"/>
<path d="M3875 2030 c-43 -44 -77 -81 -74 -82 2 -2 40 34 83 79 44 46 78 83
75 83 -2 0 -40 -36 -84 -80z"/>
</g>
</svg>
